<?xml version="1.0" standalone="no"?>
<!DOCTYPE svg PUBLIC "-//W3C//DTD SVG 20010904//EN"
 "http://www.w3.org/TR/2001/REC-SVG-20010904/DTD/svg10.dtd">
<svg version="1.0" xmlns="http://www.w3.org/2000/svg"
 width="143.000000pt" height="76.000000pt" viewBox="0 0 143.000000 76.000000"
 preserveAspectRatio="xMidYMid meet">
<metadata>
Created by potrace 1.14, written by Peter Selinger 2001-2017
</metadata>
<g transform="translate(0.000000,76.000000) scale(0.100000,-0.100000)"
fill="#000000" stroke="none">
<path d="M1085 468 c7 -112 -6 -223 -29 -246 -8 -8 -22 -11 -35 -7 -35 11 -44
65 -33 205 5 69 8 126 7 128 -2 2 -18 5 -38 9 -45 7 -46 4 -49 -172 -3 -158 6
-189 65 -225 69 -43 139 -11 174 78 14 38 18 73 17 181 -2 144 -4 151 -57 151
l-29 0 7 -102z"/>
<path d="M49 553 l-36 -4 -6 -112 c-4 -62 -7 -151 -7 -198 0 -81 1 -87 22 -93
55 -14 57 -12 60 77 l3 82 58 3 c59 3 62 6 51 49 -6 21 -10 22 -61 17 l-54 -7
3 59 3 59 63 3 62 3 0 34 0 35 -62 -2 c-35 -1 -79 -3 -99 -5z"/>
<path d="M641 534 c-45 -38 -58 -92 -37 -149 l18 -46 -36 -39 c-44 -49 -46
-81 -7 -121 33 -33 87 -39 148 -17 30 11 35 10 60 -15 l28 -26 34 21 34 22
-29 24 -28 25 27 21 27 22 -24 23 c-24 23 -26 23 -52 7 -25 -17 -27 -17 -50 5
-32 30 -30 39 12 73 68 54 78 141 21 181 -35 25 -110 19 -146 -11z"/>
<path d="M430 455 c0 -56 -2 -65 -18 -65 -10 0 -21 -3 -24 -6 -11 -11 4 -42
23 -47 17 -5 19 -15 19 -96 0 -72 3 -91 14 -91 8 0 21 -3 30 -6 14 -5 16 6 16
90 0 94 1 97 25 106 32 12 36 60 5 60 -18 0 -20 7 -20 60 l0 60 -35 0 -35 0 0
-65z"/>
<path d="M1230 231 l0 -219 33 -4 34 -4 -5 72 -4 72 25 -5 c37 -7 62 11 88 64
33 68 33 162 0 197 -28 30 -57 33 -89 10 -20 -14 -22 -14 -22 4 0 20 -18 32
-46 32 -12 0 -14 -37 -14 -219z"/>
<path d="M270 290 c0 -105 3 -140 13 -140 6 0 22 -3 35 -6 l22 -6 0 146 0 146
-35 0 -35 0 0 -140z"/>
</g>
</svg>
